<?xml version="1.0" encoding="UTF-8"?>
<svg xmlns="http://www.w3.org/2000/svg" xmlns:xlink="http://www.w3.org/1999/xlink" width="2024px" height="2024px" viewBox="0 0 2024 2024" version="1.1">
<g id="surface1">
<path style=" stroke:none;fill-rule:nonzero;fill:rgb(81.568629%,70.588237%,41.568628%);fill-opacity:1;" d="M 1047.949219 558.75 C 1072.09375 578.609375 1079.917969 602.191406 1085.734375 632.222656 C 1086.304688 635.058594 1086.878906 637.894531 1087.453125 640.730469 C 1088.960938 648.175781 1090.433594 655.625 1091.902344 663.078125 C 1094.507812 676.273438 1097.164062 689.453125 1099.816406 702.636719 C 1100.253906 704.792969 1100.253906 704.792969 1100.695312 706.992188 C 1104.742188 727.078125 1108.882812 747.144531 1113.300781 767.152344 C 1114.148438 771.007812 1114.980469 774.867188 1115.8125 778.726562 C 1120.375 799.085938 1125.867188 820.554688 1144.308594 832.675781 C 1159.714844 840.816406 1175.839844 844.179688 1192.730469 847.699219 C 1195.84375 848.367188 1198.957031 849.035156 1202.070312 849.707031 C 1211.835938 851.796875 1221.617188 853.828125 1231.398438 855.851562 C 1234.703125 856.539062 1238.007812 857.226562 1241.3125 857.914062 C 1250.808594 859.886719 1260.3125 861.828125 1269.816406 863.757812 C 1271.304688 864.0625 1272.792969 864.367188 1274.328125 864.679688 C 1278.542969 865.535156 1282.761719 866.378906 1286.980469 867.21875 C 1290.570312 867.933594 1290.570312 867.933594 1294.234375 868.667969 C 1299.796875 869.5625 1304.84375 869.898438 1310.460938 869.6875 C 1310.460938 870.992188 1310.460938 872.296875 1310.460938 873.640625 C 1311.542969 873.691406 1312.625 873.742188 1313.742188 873.796875 C 1337.726562 875.511719 1359.945312 881.347656 1379.640625 895.382812 C 1381.476562 896.648438 1383.308594 897.910156 1385.199219 899.210938 C 1399.21875 912.429688 1405.574219 927.226562 1406.199219 946.402344 C 1405.46875 972.738281 1395.019531 987.558594 1376.3125 1005.265625 C 1364.472656 1014.949219 1347.273438 1019.90625 1332.203125 1019.90625 C 1331.550781 1021.210938 1330.898438 1022.515625 1330.226562 1023.859375 C 1326.113281 1024.367188 1321.996094 1024.851562 1317.867188 1025.226562 C 1307.621094 1026.378906 1297.589844 1028.722656 1287.515625 1030.871094 C 1285.136719 1031.371094 1282.761719 1031.871094 1280.3125 1032.386719 C 1275.285156 1033.445312 1270.261719 1034.507812 1265.242188 1035.574219 C 1257.695312 1037.179688 1250.148438 1038.765625 1242.601562 1040.351562 C 1228.3125 1043.363281 1214.039062 1046.433594 1199.773438 1049.554688 C 1197.6875 1050.007812 1195.605469 1050.464844 1193.457031 1050.933594 C 1187.761719 1052.1875 1182.078125 1053.472656 1176.394531 1054.773438 C 1174.769531 1055.132812 1173.144531 1055.488281 1171.472656 1055.855469 C 1152.714844 1060.25 1139.890625 1067.390625 1128.617188 1083.15625 C 1118.121094 1101.222656 1114.703125 1121.015625 1110.695312 1141.226562 C 1109.980469 1144.742188 1109.257812 1148.261719 1108.535156 1151.777344 C 1106.648438 1160.996094 1104.789062 1170.222656 1102.941406 1179.449219 C 1100.707031 1190.566406 1098.433594 1201.675781 1096.171875 1212.789062 C 1094.402344 1221.453125 1092.640625 1230.121094 1090.898438 1238.792969 C 1089.003906 1248.191406 1087.082031 1257.585938 1085.132812 1266.976562 C 1084.796875 1268.597656 1084.460938 1270.21875 1084.113281 1271.890625 C 1083.101562 1276.726562 1082.066406 1281.5625 1081.027344 1286.394531 C 1080.722656 1287.84375 1080.421875 1289.292969 1080.109375 1290.785156 C 1075.480469 1311.945312 1065.527344 1327.835938 1047.578125 1340.109375 C 1030.757812 1349.207031 1013.910156 1351.992188 995.285156 1347.574219 C 975.570312 1341.550781 962.457031 1331.265625 951.785156 1313.566406 C 937.464844 1284.921875 934.023438 1249.386719 927.792969 1218.25 C 918.050781 1169.652344 918.050781 1169.652344 907.613281 1121.203125 C 907.136719 1118.957031 906.660156 1116.710938 906.171875 1114.394531 C 901.613281 1094.574219 893.480469 1078.234375 876.632812 1066.246094 C 860.003906 1056.6875 840.082031 1053.425781 821.472656 1049.820312 C 817.515625 1049.050781 813.5625 1048.253906 809.609375 1047.453125 C 798.488281 1045.257812 788.164062 1043.300781 776.789062 1043.625 C 776.789062 1042.320312 776.789062 1041.015625 776.789062 1039.671875 C 773.753906 1039.351562 773.753906 1039.351562 770.660156 1039.023438 C 678.125 1027.402344 678.125 1027.402344 648.3125 1006.070312 C 647.089844 1005.222656 645.867188 1004.378906 644.605469 1003.507812 C 631.09375 993.140625 621.652344 977.339844 618.664062 960.609375 C 616.621094 938.714844 622.539062 920.273438 636.453125 903.289062 C 656.136719 881.835938 682.375 877.117188 709.746094 871.8125 C 715.761719 870.644531 721.769531 869.449219 727.777344 868.242188 C 738.367188 866.121094 748.960938 864.027344 759.5625 861.945312 C 776.527344 858.609375 793.488281 855.246094 810.441406 851.851562 C 816.332031 850.679688 822.226562 849.53125 828.121094 848.382812 C 860.253906 842.898438 860.253906 842.898438 887.476562 826.203125 C 888.128906 824.898438 888.78125 823.59375 889.453125 822.25 C 890.757812 822.25 892.0625 822.25 893.40625 822.25 C 894.742188 818.960938 896.054688 815.667969 897.359375 812.367188 C 898.289062 810.058594 899.21875 807.75 900.175781 805.371094 C 903.746094 795.800781 905.894531 786.0625 908 776.085938 C 908.425781 774.109375 908.851562 772.136719 909.289062 770.101562 C 910.679688 763.644531 912.046875 757.183594 913.417969 750.722656 C 914.382812 746.226562 915.347656 741.726562 916.316406 737.230469 C 921.085938 714.925781 925.703125 692.601562 930.066406 670.21875 C 930.460938 668.203125 930.851562 666.191406 931.257812 664.117188 C 933.117188 654.609375 934.945312 645.101562 936.730469 635.578125 C 947.808594 577.519531 947.808594 577.519531 971.265625 559.738281 C 995.101562 544.53125 1024.058594 541.824219 1047.949219 558.75 Z M 1010.023438 640.40625 C 1007.1875 653.769531 1004.351562 667.136719 1001.519531 680.5 C 1000.519531 685.222656 999.519531 689.949219 998.515625 694.671875 C 991.15625 729.304688 991.15625 729.304688 984.105469 764.003906 C 983.644531 766.296875 983.644531 766.296875 983.175781 768.640625 C 981.804688 775.511719 980.449219 782.386719 979.132812 789.273438 C 970.863281 830.804688 953.589844 867.097656 917.625 891.4375 C 893.761719 906.078125 868.453125 912.519531 841.273438 917.867188 C 837.683594 918.601562 834.097656 919.335938 830.507812 920.078125 C 823.03125 921.621094 815.546875 923.144531 808.0625 924.660156 C 790.75 928.175781 773.476562 931.882812 756.199219 935.59375 C 750.824219 936.746094 745.441406 937.886719 740.0625 939.027344 C 736.75 939.734375 733.441406 940.4375 730.132812 941.144531 C 727.910156 941.613281 727.910156 941.613281 725.644531 942.089844 C 716.875 943.96875 708.300781 946.195312 699.703125 948.75 C 699.703125 949.402344 699.703125 950.054688 699.703125 950.726562 C 710.496094 952.992188 721.296875 955.242188 732.09375 957.480469 C 735.765625 958.246094 739.4375 959.011719 743.109375 959.785156 C 748.390625 960.890625 753.675781 961.988281 758.960938 963.078125 C 761.414062 963.597656 761.414062 963.597656 763.917969 964.128906 C 771.621094 965.710938 778.753906 966.984375 786.671875 966.539062 C 786.671875 967.191406 786.671875 967.84375 786.671875 968.515625 C 796.339844 970.5 806.011719 972.46875 815.6875 974.425781 C 818.972656 975.09375 822.261719 975.765625 825.550781 976.441406 C 830.28125 977.410156 835.015625 978.367188 839.753906 979.324219 C 841.214844 979.628906 842.679688 979.929688 844.183594 980.242188 C 850.015625 981.410156 855.46875 982.355469 861.429688 982.292969 C 865.734375 982.351562 865.734375 982.351562 871.664062 986.304688 C 875.265625 987.527344 878.894531 988.671875 882.535156 989.765625 C 918.191406 1001.476562 945.34375 1024.980469 962.957031 1057.953125 C 968.585938 1069.492188 972.269531 1080.800781 974.9375 1093.332031 C 975.339844 1095.152344 975.742188 1096.972656 976.152344 1098.847656 C 982.710938 1129 988.710938 1159.273438 994.796875 1189.523438 C 996.515625 1198.058594 998.242188 1206.59375 999.96875 1215.128906 C 1003.324219 1231.753906 1006.675781 1248.375 1010.023438 1265 C 1011.328125 1264.347656 1012.632812 1263.695312 1013.976562 1263.023438 C 1015.367188 1257.628906 1016.507812 1252.34375 1017.535156 1246.878906 C 1018.03125 1244.335938 1018.03125 1244.335938 1018.539062 1241.742188 C 1019.261719 1238.046875 1019.972656 1234.351562 1020.679688 1230.65625 C 1021.804688 1224.78125 1022.949219 1218.914062 1024.101562 1213.046875 C 1027.375 1196.359375 1030.601562 1179.664062 1033.824219 1162.964844 C 1035.796875 1152.757812 1037.792969 1142.554688 1039.796875 1132.355469 C 1040.921875 1126.613281 1042.015625 1120.863281 1043.113281 1115.117188 C 1050.199219 1078.667969 1061.246094 1047.078125 1087.65625 1019.828125 C 1091.496094 1016.316406 1091.496094 1016.316406 1091.0625 1012 C 1092.183594 1011.785156 1093.304688 1011.570312 1094.460938 1011.351562 C 1099.640625 1009.824219 1103.332031 1007.519531 1107.863281 1004.585938 C 1136.566406 987.035156 1168.925781 981.605469 1201.378906 974.816406 C 1203.003906 974.472656 1204.632812 974.132812 1206.308594 973.78125 C 1231.832031 968.417969 1257.394531 963.304688 1283.015625 958.441406 C 1295.511719 956.066406 1307.945312 953.570312 1320.34375 950.726562 C 1314.230469 946.652344 1310.445312 945.601562 1303.34375 944.117188 C 1301.074219 943.636719 1298.804688 943.152344 1296.464844 942.660156 C 1294.015625 942.152344 1291.5625 941.648438 1289.035156 941.128906 C 1285.257812 940.339844 1285.257812 940.339844 1281.40625 939.535156 C 1276.078125 938.425781 1270.75 937.328125 1265.421875 936.234375 C 1258.59375 934.832031 1251.777344 933.402344 1244.957031 931.964844 C 1238.445312 930.597656 1231.929688 929.253906 1225.414062 927.910156 C 1222.964844 927.394531 1220.519531 926.878906 1217.996094 926.34375 C 1215.71875 925.882812 1213.445312 925.421875 1211.101562 924.945312 C 1208.097656 924.324219 1208.097656 924.324219 1205.035156 923.691406 C 1199.878906 923.066406 1196.707031 923.265625 1191.867188 925.03125 C 1191.214844 925.683594 1190.5625 926.335938 1189.890625 927.007812 C 1189.890625 925.050781 1189.890625 923.09375 1189.890625 921.078125 C 1188.496094 920.761719 1187.105469 920.441406 1185.667969 920.113281 C 1179.246094 918.640625 1172.832031 917.140625 1166.417969 915.640625 C 1164.226562 915.144531 1162.035156 914.644531 1159.777344 914.128906 C 1119.335938 904.613281 1088.058594 885.066406 1065.574219 849.757812 C 1054.554688 830.171875 1048.957031 809.605469 1044.367188 787.785156 C 1043.714844 784.785156 1043.066406 781.789062 1042.410156 778.792969 C 1038.121094 758.980469 1034.066406 739.117188 1030.003906 719.253906 C 1029.273438 715.679688 1029.273438 715.679688 1028.523438 712.035156 C 1026.078125 700.09375 1023.648438 688.152344 1021.253906 676.199219 C 1020.355469 671.796875 1019.460938 667.394531 1018.5625 662.988281 C 1018.15625 660.933594 1017.753906 658.878906 1017.335938 656.761719 C 1016.949219 654.890625 1016.566406 653.019531 1016.171875 651.09375 C 1015.839844 649.453125 1015.511719 647.808594 1015.171875 646.117188 C 1014.777344 644.886719 1014.382812 643.652344 1013.976562 642.382812 C 1012.019531 641.40625 1012.019531 641.40625 1010.023438 640.40625 Z M 1010.023438 640.40625 "/>
<path style=" stroke:none;fill-rule:nonzero;fill:rgb(81.568629%,70.588237%,41.176471%);fill-opacity:1;" d="M 732.070312 1130.46875 C 735.101562 1130.484375 735.101562 1130.484375 738.191406 1130.496094 C 743.152344 1130.519531 748.109375 1130.554688 753.070312 1130.59375 C 753.070312 1131.898438 753.070312 1133.203125 753.070312 1134.546875 C 755.761719 1134.976562 755.761719 1134.976562 758.507812 1135.410156 C 763.378906 1136.253906 768.070312 1137.214844 772.835938 1138.5 C 772.835938 1139.804688 772.835938 1141.109375 772.835938 1142.453125 C 774.792969 1143.066406 774.792969 1143.066406 776.789062 1143.6875 C 801.265625 1154.90625 818.414062 1177.214844 828.179688 1201.75 C 838.25 1230.4375 836.613281 1261.464844 823.855469 1289.089844 C 810.449219 1313.707031 789.53125 1334.292969 762.953125 1344.0625 C 732.921875 1352.746094 704.273438 1351.675781 676.300781 1337.207031 C 650.640625 1321.945312 635.617188 1301.234375 622.617188 1274.882812 C 621.964844 1273.578125 621.3125 1272.273438 620.640625 1270.929688 C 619.625 1263.710938 619.148438 1256.457031 618.664062 1249.1875 C 618.554688 1247.609375 618.445312 1246.027344 618.332031 1244.402344 C 617.25 1213.703125 627.238281 1186.570312 647.078125 1163.332031 C 670.730469 1138.679688 698.699219 1130.191406 732.070312 1130.46875 Z M 698.21875 1213.238281 C 690.835938 1223.699219 688.722656 1232.480469 689.820312 1245.234375 C 692.210938 1256.417969 696.789062 1263.582031 705.863281 1270.550781 C 715.652344 1276.746094 725.484375 1277.855469 736.710938 1276.1875 C 746.328125 1273.398438 754.0625 1267.84375 759.324219 1259.277344 C 764.289062 1247.515625 764.429688 1236.65625 760.976562 1224.355469 C 755.011719 1214.105469 746.6875 1205.550781 735.28125 1201.75 C 719.808594 1200.363281 709.464844 1201.738281 698.21875 1213.238281 Z M 698.21875 1213.238281 "/>
<path style=" stroke:none;fill-rule:nonzero;fill:rgb(81.568629%,70.588237%,41.176471%);fill-opacity:1;" d="M 1308.484375 553.4375 C 1320.925781 563.339844 1323.535156 576.4375 1326.644531 591.363281 C 1327.5625 595.59375 1328.496094 599.824219 1329.445312 604.046875 C 1329.835938 605.90625 1330.226562 607.765625 1330.628906 609.679688 C 1332.328125 615.117188 1334.308594 618.417969 1338.132812 622.617188 C 1343.445312 625.011719 1343.445312 625.011719 1349.621094 626.570312 C 1351.898438 627.226562 1354.175781 627.878906 1356.523438 628.554688 C 1361.425781 629.875 1366.335938 631.167969 1371.253906 632.429688 C 1395.40625 638.816406 1395.40625 638.816406 1403.359375 648.3125 C 1408 658.148438 1407.503906 664.382812 1403.976562 674.214844 C 1394.128906 688.429688 1374.648438 690.417969 1359.0625 694.476562 C 1355.972656 695.320312 1355.972656 695.320312 1352.816406 696.183594 C 1350.011719 696.914062 1350.011719 696.914062 1347.148438 697.660156 C 1341.226562 700.050781 1338.226562 702.703125 1334.179688 707.609375 C 1332.378906 712.636719 1330.953125 717.277344 1329.734375 722.433594 C 1329.390625 723.746094 1329.050781 725.058594 1328.699219 726.410156 C 1327.058594 732.929688 1326.273438 738.394531 1326.273438 745.164062 C 1324.96875 745.164062 1323.664062 745.164062 1322.320312 745.164062 C 1322.15625 747.203125 1321.996094 749.242188 1321.828125 751.339844 C 1320.164062 759.925781 1318.136719 764.257812 1312.4375 770.859375 C 1302.507812 776.667969 1295.882812 777.695312 1284.765625 774.8125 C 1277.429688 771.3125 1273.335938 767.761719 1268.953125 760.976562 C 1267.253906 755.667969 1267.253906 755.667969 1265.917969 749.671875 C 1265.421875 747.503906 1264.921875 745.335938 1264.410156 743.101562 C 1263.910156 740.847656 1263.414062 738.59375 1262.898438 736.269531 C 1261.898438 731.800781 1260.886719 727.332031 1259.867188 722.867188 C 1259.425781 720.886719 1258.988281 718.910156 1258.535156 716.871094 C 1257.203125 711.96875 1255.769531 707.988281 1253.140625 703.65625 C 1249.113281 701.3125 1249.113281 701.3125 1244.121094 699.828125 C 1242.195312 699.171875 1240.265625 698.515625 1238.277344 697.84375 C 1233.1875 696.292969 1228.113281 694.84375 1222.976562 693.472656 C 1194.394531 685.746094 1194.394531 685.746094 1183.960938 674.007812 C 1180.796875 667.679688 1181.28125 661.121094 1181.984375 654.242188 C 1185.722656 644.570312 1192.664062 640.632812 1201.75 636.453125 C 1209.035156 634.039062 1216.421875 632.140625 1223.863281 630.277344 C 1227.722656 629.289062 1231.582031 628.296875 1235.4375 627.296875 C 1237.128906 626.871094 1238.820312 626.445312 1240.566406 626.003906 C 1245.144531 624.621094 1249.039062 623.101562 1253.140625 620.640625 C 1255.5625 616.089844 1255.5625 616.089844 1257.09375 610.511719 C 1257.75 608.402344 1258.402344 606.296875 1259.078125 604.125 C 1260.484375 598.972656 1261.777344 593.871094 1262.953125 588.667969 C 1263.277344 587.269531 1263.597656 585.875 1263.929688 584.433594 C 1264.546875 581.699219 1265.132812 578.957031 1265.675781 576.210938 C 1267.820312 566.589844 1271.316406 561.679688 1278.835938 555.414062 C 1289.769531 549.019531 1297.242188 548.082031 1308.484375 553.4375 Z M 1308.484375 553.4375 "/>
<path style=" stroke:none;fill-rule:nonzero;fill:rgb(84.313726%,73.333335%,45.09804%);fill-opacity:1;" d="M 798.53125 1043.625 C 814.277344 1043.128906 828.589844 1044.414062 843.992188 1047.578125 C 848.597656 1048.308594 853.207031 1048.9375 857.828125 1049.554688 C 857.175781 1050.859375 856.523438 1052.164062 855.851562 1053.507812 C 857.808594 1054.8125 859.765625 1056.117188 861.78125 1057.460938 C 848.511719 1055.785156 835.472656 1053.078125 822.375 1050.417969 C 820.078125 1049.957031 817.785156 1049.496094 815.421875 1049.019531 C 809.789062 1047.882812 804.160156 1046.742188 798.53125 1045.601562 C 798.53125 1044.949219 798.53125 1044.296875 798.53125 1043.625 Z M 798.53125 1043.625 "/>
<path style=" stroke:none;fill-rule:nonzero;fill:rgb(84.313726%,74.117649%,46.666667%);fill-opacity:1;" d="M 732.070312 1130.46875 C 735.101562 1130.484375 735.101562 1130.484375 738.191406 1130.496094 C 743.152344 1130.519531 748.109375 1130.554688 753.070312 1130.59375 C 753.070312 1131.898438 753.070312 1133.203125 753.070312 1134.546875 C 755.027344 1134.546875 756.984375 1134.546875 759 1134.546875 C 759 1135.851562 759 1137.15625 759 1138.5 C 760.304688 1139.152344 761.609375 1139.804688 762.953125 1140.476562 C 752.515625 1139.171875 742.082031 1137.867188 731.328125 1136.523438 C 731.328125 1135.871094 731.328125 1135.21875 731.328125 1134.546875 C 720.238281 1134.546875 709.152344 1134.546875 697.726562 1134.546875 C 697.726562 1133.894531 697.726562 1133.242188 697.726562 1132.570312 C 709.164062 1130.089844 720.433594 1130.371094 732.070312 1130.46875 Z M 732.070312 1130.46875 "/>
<path style=" stroke:none;fill-rule:nonzero;fill:rgb(83.137256%,70.588237%,39.607844%);fill-opacity:1;" d="M 911.195312 1118.734375 C 915.664062 1126.367188 917.359375 1134.546875 919.347656 1143.070312 C 919.707031 1144.523438 920.066406 1145.972656 920.4375 1147.46875 C 922.585938 1156.574219 923.425781 1164.726562 923.054688 1174.078125 C 922.402344 1171.46875 921.75 1168.859375 921.078125 1166.171875 C 919.773438 1166.171875 918.46875 1166.171875 917.125 1166.171875 C 913.253906 1150.183594 910.167969 1135.230469 911.195312 1118.734375 Z M 911.195312 1118.734375 "/>
<path style=" stroke:none;fill-rule:nonzero;fill:rgb(81.960785%,70.19608%,40.392157%);fill-opacity:1;" d="M 1008.046875 632.5 C 1008.699219 632.5 1009.351562 632.5 1010.023438 632.5 C 1010.929688 647.574219 1007.542969 661.363281 1004.09375 675.984375 C 1002.789062 675.984375 1001.484375 675.984375 1000.140625 675.984375 C 999.488281 677.941406 998.835938 679.898438 998.164062 681.914062 C 998.972656 664.746094 1003.339844 648.917969 1008.046875 632.5 Z M 1008.046875 632.5 "/>
<path style=" stroke:none;fill-rule:nonzero;fill:rgb(81.176472%,67.843139%,34.901962%);fill-opacity:1;" d="M 638.429688 1296.625 C 639.734375 1297.929688 641.039062 1299.234375 642.382812 1300.578125 C 643.730469 1301.917969 643.730469 1301.917969 645.109375 1303.289062 C 647.449219 1305.640625 649.769531 1308.015625 652.074219 1310.40625 C 659.589844 1318.128906 666.734375 1324.675781 675.984375 1330.226562 C 672.640625 1331.714844 672.640625 1331.714844 668.078125 1332.203125 C 656.800781 1324.410156 646.40625 1313.722656 638.429688 1302.554688 C 638.429688 1300.597656 638.429688 1298.640625 638.429688 1296.625 Z M 638.429688 1296.625 "/>
<path style=" stroke:none;fill-rule:nonzero;fill:rgb(81.568629%,68.627453%,34.901962%);fill-opacity:1;" d="M 1033.742188 1166.171875 C 1034.394531 1166.171875 1035.046875 1166.171875 1035.71875 1166.171875 C 1036.136719 1177.8125 1034.835938 1187.582031 1031.765625 1198.785156 C 1031.199219 1200.941406 1031.199219 1200.941406 1030.621094 1203.140625 C 1029.703125 1206.632812 1028.761719 1210.121094 1027.8125 1213.609375 C 1027.160156 1213.609375 1026.507812 1213.609375 1025.835938 1213.609375 C 1024.972656 1197.105469 1026.230469 1181.191406 1033.742188 1166.171875 Z M 1033.742188 1166.171875 "/>
<path style=" stroke:none;fill-rule:nonzero;fill:rgb(80.784315%,67.450982%,33.333334%);fill-opacity:1;" d="M 932.9375 1221.515625 C 937.746094 1230.351562 939.277344 1239.394531 941.214844 1249.1875 C 941.777344 1251.863281 941.777344 1251.863281 942.351562 1254.59375 C 942.699219 1256.316406 943.042969 1258.035156 943.398438 1259.8125 C 943.714844 1261.375 944.03125 1262.941406 944.359375 1264.550781 C 944.820312 1269.195312 944.226562 1272.441406 942.820312 1276.859375 C 942.820312 1274.902344 942.820312 1272.945312 942.820312 1270.929688 C 941.515625 1270.929688 940.210938 1270.929688 938.867188 1270.929688 C 934.886719 1254.511719 933.789062 1238.332031 932.9375 1221.515625 Z M 932.9375 1221.515625 "/>
<path style=" stroke:none;fill-rule:nonzero;fill:rgb(85.09804%,75.294119%,49.411765%);fill-opacity:1;" d="M 1043.625 1104.898438 C 1044.277344 1104.898438 1044.929688 1104.898438 1045.601562 1104.898438 C 1045.351562 1108.003906 1045.351562 1108.003906 1045.101562 1111.175781 C 1044.894531 1113.902344 1044.691406 1116.625 1044.488281 1119.351562 C 1044.378906 1120.714844 1044.269531 1122.082031 1044.152344 1123.488281 C 1043.691406 1129.851562 1043.5625 1134.355469 1045.601562 1140.476562 C 1044.929688 1144.945312 1044.929688 1144.945312 1043.75 1149.742188 C 1043.171875 1152.136719 1043.171875 1152.136719 1042.582031 1154.582031 C 1042.273438 1155.796875 1041.964844 1157.011719 1041.648438 1158.265625 C 1038.667969 1155.765625 1038.667969 1155.765625 1035.71875 1152.335938 C 1036.25 1136.339844 1040.347656 1120.535156 1043.625 1104.898438 Z M 1043.625 1104.898438 "/>
<path style=" stroke:none;fill-rule:nonzero;fill:rgb(81.176472%,68.627453%,35.686275%);fill-opacity:1;" d="M 1087.109375 1227.445312 C 1087.761719 1227.445312 1088.414062 1227.445312 1089.085938 1227.445312 C 1090.226562 1261.382812 1090.226562 1261.382812 1079.203125 1274.882812 C 1080.148438 1258.585938 1083.113281 1243.257812 1087.109375 1227.445312 Z M 1087.109375 1227.445312 "/>
<path style=" stroke:none;fill-rule:nonzero;fill:rgb(81.176472%,67.843139%,33.725491%);fill-opacity:1;" d="M 804.460938 974.445312 C 821.917969 973.332031 835.660156 975.902344 851.898438 982.351562 C 851.898438 983.003906 851.898438 983.65625 851.898438 984.328125 C 835.601562 983.382812 820.273438 980.417969 804.460938 976.421875 C 804.460938 975.769531 804.460938 975.117188 804.460938 974.445312 Z M 804.460938 974.445312 "/>
<path style=" stroke:none;fill-rule:nonzero;fill:rgb(85.09804%,74.901962%,48.235294%);fill-opacity:1;" d="M 1272.90625 865.734375 C 1278.796875 866.289062 1284.683594 866.867188 1290.570312 867.464844 C 1293.09375 867.695312 1293.09375 867.695312 1295.664062 867.933594 C 1298.0625 868.183594 1298.0625 868.183594 1300.507812 868.4375 C 1302.730469 868.652344 1302.730469 868.652344 1304.992188 868.875 C 1306.722656 869.277344 1306.722656 869.277344 1308.484375 869.6875 C 1309.136719 870.992188 1309.789062 872.296875 1310.460938 873.640625 C 1314.460938 874.929688 1314.460938 874.929688 1318.367188 875.617188 C 1317.175781 875.59375 1315.980469 875.570312 1314.753906 875.546875 C 1313.175781 875.53125 1311.59375 875.511719 1309.96875 875.492188 C 1308.40625 875.472656 1306.847656 875.449219 1305.242188 875.425781 C 1300.761719 875.609375 1296.964844 876.34375 1292.671875 877.59375 C 1291.367188 874.984375 1290.0625 872.375 1288.71875 869.6875 C 1286.761719 870.992188 1284.804688 872.296875 1282.789062 873.640625 C 1280.179688 873.640625 1277.570312 873.640625 1274.882812 873.640625 C 1274.230469 871.03125 1273.578125 868.421875 1272.90625 865.734375 Z M 1272.90625 865.734375 "/>
<path style=" stroke:none;fill-rule:nonzero;fill:rgb(82.745099%,70.19608%,38.431373%);fill-opacity:1;" d="M 940.84375 1029.789062 C 949.140625 1034.058594 953.3125 1038.472656 958.261719 1046.34375 C 959.457031 1048.191406 960.652344 1050.042969 961.882812 1051.949219 C 964.675781 1057.691406 965.144531 1061.0625 964.5625 1067.34375 C 959.890625 1061.285156 955.695312 1055.023438 951.589844 1048.566406 C 950.40625 1046.710938 949.222656 1044.855469 948 1042.945312 C 945.367188 1038.628906 943.007812 1034.351562 940.84375 1029.789062 Z M 940.84375 1029.789062 "/>
<path style=" stroke:none;fill-rule:nonzero;fill:rgb(81.176472%,69.411767%,38.431373%);fill-opacity:1;" d="M 982.722656 556.203125 C 983.90625 556.59375 985.085938 556.988281 986.304688 557.390625 C 984.089844 559.050781 981.863281 560.695312 979.632812 562.332031 C 977.777344 563.707031 977.777344 563.707031 975.882812 565.113281 C 972.46875 567.273438 972.46875 567.273438 968.515625 567.273438 C 968.027344 568.414062 967.539062 569.554688 967.03125 570.734375 C 964.234375 575.773438 960.855469 579.167969 956.65625 583.085938 C 957.660156 574.3125 960.484375 569.703125 966.539062 563.320312 C 976.875 555.136719 976.875 555.136719 982.722656 556.203125 Z M 982.722656 556.203125 "/>
<path style=" stroke:none;fill-rule:nonzero;fill:rgb(81.568629%,68.235296%,34.901962%);fill-opacity:1;" d="M 1045.601562 782.71875 C 1049.863281 789.113281 1051.15625 793.925781 1052.890625 801.371094 C 1053.429688 803.613281 1053.964844 805.851562 1054.519531 808.160156 C 1055.40625 813.847656 1055.453125 816.933594 1053.507812 822.25 C 1053.507812 820.945312 1053.507812 819.640625 1053.507812 818.296875 C 1052.203125 818.296875 1050.898438 818.296875 1049.554688 818.296875 C 1045.949219 806.132812 1045.132812 795.375 1045.601562 782.71875 Z M 1045.601562 782.71875 "/>
<path style=" stroke:none;fill-rule:nonzero;fill:rgb(83.92157%,73.333335%,46.27451%);fill-opacity:1;" d="M 1029.789062 549.484375 C 1027.6875 552.449219 1027.6875 552.449219 1023.859375 555.414062 C 1012.84375 556.515625 1002.835938 554.152344 992.234375 551.460938 C 992.234375 550.808594 992.234375 550.15625 992.234375 549.484375 C 1004.449219 546.332031 1017.574219 546.332031 1029.789062 549.484375 Z M 1029.789062 549.484375 "/>
<path style=" stroke:none;fill-rule:nonzero;fill:rgb(81.176472%,68.235296%,34.901962%);fill-opacity:1;" d="M 796.554688 968.515625 C 796.554688 969.820312 796.554688 971.125 796.554688 972.46875 C 798.511719 973.121094 800.46875 973.773438 802.484375 974.445312 C 789.640625 973.425781 777.457031 971.546875 764.929688 968.515625 C 764.929688 967.863281 764.929688 967.210938 764.929688 966.539062 C 768.097656 966.152344 771.269531 965.785156 774.441406 965.425781 C 776.207031 965.222656 777.972656 965.015625 779.792969 964.800781 C 786.046875 964.496094 790.648438 966.546875 796.554688 968.515625 Z M 796.554688 968.515625 "/>
<path style=" stroke:none;fill-rule:nonzero;fill:rgb(80.392158%,67.450982%,33.725491%);fill-opacity:1;" d="M 685.867188 1142.453125 C 684.390625 1143.359375 682.910156 1144.265625 681.390625 1145.203125 C 679.441406 1146.414062 677.496094 1147.628906 675.492188 1148.875 C 673.5625 1150.070312 671.636719 1151.261719 669.652344 1152.492188 C 664.527344 1156.011719 660.441406 1159.652344 656.21875 1164.195312 C 654.914062 1163.542969 653.609375 1162.890625 652.265625 1162.21875 C 671.632812 1138.09375 671.632812 1138.09375 685.867188 1142.453125 Z M 685.867188 1142.453125 "/>
<path style=" stroke:none;fill-rule:nonzero;fill:rgb(81.176472%,68.235296%,36.078432%);fill-opacity:1;" d="M 1069.320312 851.898438 C 1078.957031 861.039062 1078.957031 861.039062 1081.179688 867.710938 C 1082.484375 867.710938 1083.789062 867.710938 1085.132812 867.710938 C 1087.878906 871.589844 1090.519531 875.542969 1093.039062 879.570312 C 1085.707031 878.46875 1082.644531 875.71875 1077.84375 870.179688 C 1076.65625 868.847656 1075.464844 867.511719 1074.238281 866.136719 C 1070.988281 861.328125 1070.070312 857.605469 1069.320312 851.898438 Z M 1069.320312 851.898438 "/>
<path style=" stroke:none;fill-rule:nonzero;fill:rgb(85.490197%,74.901962%,48.235294%);fill-opacity:1;" d="M 1199.773438 1047.578125 C 1192.023438 1052.144531 1183.609375 1053.828125 1174.941406 1055.855469 C 1173.425781 1056.230469 1171.910156 1056.605469 1170.34375 1056.992188 C 1158.984375 1059.675781 1158.984375 1059.675781 1152.335938 1057.460938 C 1153.640625 1057.460938 1154.945312 1057.460938 1156.289062 1057.460938 C 1156.289062 1056.15625 1156.289062 1054.851562 1156.289062 1053.507812 C 1170.585938 1048.84375 1184.757812 1047.417969 1199.773438 1047.578125 Z M 1199.773438 1047.578125 "/>
<path style=" stroke:none;fill-rule:nonzero;fill:rgb(84.313726%,73.333335%,44.313726%);fill-opacity:1;" d="M 1081.179688 622.617188 C 1081.832031 622.617188 1082.484375 622.617188 1083.15625 622.617188 C 1084.15625 627.019531 1085.140625 631.425781 1086.121094 635.835938 C 1086.671875 638.289062 1087.222656 640.742188 1087.789062 643.269531 C 1088.875 649.152344 1089.359375 654.230469 1089.085938 660.171875 C 1083.15625 656.21875 1083.15625 656.21875 1081.804688 651.808594 C 1081.117188 645.773438 1080.988281 639.933594 1081.054688 633.859375 C 1081.074219 631.746094 1081.09375 629.632812 1081.109375 627.457031 C 1081.132812 625.859375 1081.15625 624.261719 1081.179688 622.617188 Z M 1081.179688 622.617188 "/>
<path style=" stroke:none;fill-rule:nonzero;fill:rgb(83.92157%,72.941178%,44.705883%);fill-opacity:1;" d="M 1326.273438 600.875 C 1328.585938 605.5 1330.738281 610.039062 1332.695312 614.835938 C 1336.855469 621.816406 1340.585938 623.597656 1348.015625 626.570312 C 1340.449219 629.09375 1337.410156 627.800781 1330.226562 624.59375 C 1324.523438 617.855469 1325.996094 609.234375 1326.273438 600.875 Z M 1326.273438 600.875 "/>
<path style=" stroke:none;fill-rule:nonzero;fill:rgb(80.392158%,66.666669%,32.156864%);fill-opacity:1;" d="M 1035.71875 737.257812 C 1041.582031 748.121094 1044.421875 760.472656 1043.625 772.835938 C 1042.972656 770.226562 1042.320312 767.617188 1041.648438 764.929688 C 1040.34375 764.929688 1039.039062 764.929688 1037.695312 764.929688 C 1035.84375 758.695312 1035.511719 753.136719 1035.59375 746.648438 C 1035.613281 744.882812 1035.632812 743.121094 1035.648438 741.304688 C 1035.671875 739.96875 1035.695312 738.632812 1035.71875 737.257812 Z M 1035.71875 737.257812 "/>
<path style=" stroke:none;fill-rule:nonzero;fill:rgb(79.607844%,65.882355%,29.803923%);fill-opacity:1;" d="M 687.84375 1221.515625 C 689.953125 1228.359375 690.019531 1234.640625 689.945312 1241.773438 C 689.925781 1243.90625 689.90625 1246.035156 689.890625 1248.230469 C 689.867188 1249.851562 689.84375 1251.472656 689.820312 1253.140625 C 691.125 1253.140625 692.429688 1253.140625 693.773438 1253.140625 C 694.425781 1257.054688 695.078125 1260.96875 695.75 1265 C 688.859375 1259.050781 686.160156 1252.730469 685.410156 1243.675781 C 685.441406 1241.824219 685.46875 1239.976562 685.496094 1238.070312 C 685.507812 1236.210938 685.523438 1234.347656 685.535156 1232.433594 C 685.867188 1227.445312 685.867188 1227.445312 687.84375 1221.515625 Z M 687.84375 1221.515625 "/>
<path style=" stroke:none;fill-rule:nonzero;fill:rgb(80.392158%,66.666669%,33.333334%);fill-opacity:1;" d="M 1318.367188 1021.882812 C 1316.410156 1021.882812 1314.453125 1021.882812 1312.4375 1021.882812 C 1312.4375 1023.1875 1312.4375 1024.492188 1312.4375 1025.835938 C 1306.203125 1027.6875 1300.644531 1028.019531 1294.15625 1027.9375 C 1292.390625 1027.917969 1290.628906 1027.898438 1288.8125 1027.882812 C 1287.476562 1027.859375 1286.140625 1027.835938 1284.765625 1027.8125 C 1290.535156 1023.964844 1293.8125 1022.839844 1300.453125 1021.511719 C 1302.144531 1021.15625 1303.832031 1020.804688 1305.574219 1020.4375 C 1310.484375 1019.902344 1313.710938 1020.359375 1318.367188 1021.882812 Z M 1318.367188 1021.882812 "/>
<path style=" stroke:none;fill-rule:nonzero;fill:rgb(85.882354%,75.686276%,48.627451%);fill-opacity:1;" d="M 1328.25 946.773438 C 1327.597656 948.078125 1326.945312 949.382812 1326.273438 950.726562 C 1321.207031 951.960938 1321.207031 951.960938 1316.390625 952.703125 C 1317.042969 954.660156 1317.695312 956.617188 1318.367188 958.632812 C 1309.367188 959.363281 1309.367188 959.363281 1304.902344 955.667969 C 1304.128906 954.691406 1303.351562 953.710938 1302.554688 952.703125 C 1304.347656 952.132812 1306.140625 951.5625 1307.992188 950.972656 C 1314.191406 949.023438 1314.191406 949.023438 1318.738281 946.402344 C 1322.320312 944.796875 1322.320312 944.796875 1328.25 946.773438 Z M 1328.25 946.773438 "/>
<path style=" stroke:none;fill-rule:nonzero;fill:rgb(83.529413%,72.941178%,45.490196%);fill-opacity:1;" d="M 1365.804688 632.5 C 1377.597656 633.503906 1386.832031 637.214844 1397.429688 642.382812 C 1391.695312 645.25 1388.417969 643.28125 1382.359375 641.519531 C 1380.375 640.949219 1378.394531 640.382812 1376.351562 639.796875 C 1374.828125 639.34375 1373.304688 638.894531 1371.734375 638.429688 C 1371.734375 637.125 1371.734375 635.820312 1371.734375 634.476562 C 1369.777344 633.824219 1367.820312 633.171875 1365.804688 632.5 Z M 1365.804688 632.5 "/>
<path style=" stroke:none;fill-rule:nonzero;fill:rgb(81.960785%,68.235296%,33.333334%);fill-opacity:1;" d="M 901.3125 810.390625 C 901.3125 819.5 896.027344 825.371094 889.945312 831.886719 C 889.132812 832.621094 888.316406 833.351562 887.476562 834.109375 C 886.171875 833.457031 884.867188 832.804688 883.523438 832.132812 C 886.242188 827.191406 886.242188 827.191406 889.453125 822.25 C 890.757812 822.25 892.0625 822.25 893.40625 822.25 C 894.261719 819.863281 894.261719 819.863281 895.136719 817.433594 C 897.359375 812.367188 897.359375 812.367188 901.3125 810.390625 Z M 901.3125 810.390625 "/>
<path style=" stroke:none;fill-rule:nonzero;fill:rgb(79.215688%,65.098041%,28.627452%);fill-opacity:1;" d="M 1093.039062 693.773438 C 1096.992188 699.703125 1096.992188 699.703125 1096.992188 707.609375 C 1098.296875 707.609375 1099.601562 707.609375 1100.945312 707.609375 C 1100.945312 714.785156 1100.945312 721.960938 1100.945312 729.351562 C 1095.34375 718.148438 1092.222656 706.40625 1093.039062 693.773438 Z M 1093.039062 693.773438 "/>
<path style=" stroke:none;fill-rule:nonzero;fill:rgb(83.92157%,74.117649%,48.235294%);fill-opacity:1;" d="M 1306.507812 960.609375 C 1290.625 965.109375 1290.625 965.109375 1282.789062 962.585938 C 1284.09375 961.933594 1285.398438 961.28125 1286.742188 960.609375 C 1285.4375 959.304688 1284.132812 958 1282.789062 956.65625 C 1292.972656 954.109375 1297.765625 954.78125 1306.507812 960.609375 Z M 1306.507812 960.609375 "/>
<path style=" stroke:none;fill-rule:nonzero;fill:rgb(80.784315%,67.843139%,34.117648%);fill-opacity:1;" d="M 1106.875 1002.117188 C 1109.484375 1002.769531 1112.09375 1003.421875 1114.78125 1004.09375 C 1108.257812 1009.3125 1101.734375 1014.53125 1095.015625 1019.90625 C 1093.710938 1019.253906 1092.40625 1018.601562 1091.0625 1017.929688 C 1100.203125 1006.5625 1100.203125 1006.5625 1106.875 1002.117188 Z M 1106.875 1002.117188 "/>
<path style=" stroke:none;fill-rule:nonzero;fill:rgb(80.392158%,67.450982%,34.117648%);fill-opacity:1;" d="M 962.585938 824.226562 C 963.890625 824.878906 965.195312 825.53125 966.539062 826.203125 C 967.179688 835.363281 966.269531 840.605469 960.609375 847.945312 C 958.652344 848.597656 956.695312 849.25 954.679688 849.921875 C 955.25 848.617188 955.820312 847.3125 956.410156 845.96875 C 959.097656 838.804688 960.820312 831.671875 962.585938 824.226562 Z M 962.585938 824.226562 "/>
<path style=" stroke:none;fill-rule:nonzero;fill:rgb(80.392158%,68.235296%,36.470589%);fill-opacity:1;" d="M 978.398438 759 C 982.554688 765.238281 982.875 766.039062 981.980469 772.960938 C 981.832031 774.328125 981.679688 775.695312 981.527344 777.105469 C 980.375 780.742188 980.375 780.742188 974.445312 784.695312 C 974.726562 781.523438 975.015625 778.351562 975.308594 775.183594 C 975.46875 773.417969 975.632812 771.652344 975.796875 769.832031 C 976.421875 764.929688 976.421875 764.929688 978.398438 759 Z M 978.398438 759 "/>
<path style=" stroke:none;fill-rule:nonzero;fill:rgb(86.274511%,76.078433%,49.803922%);fill-opacity:1;" d="M 1100.945312 719.46875 C 1106.808594 730.332031 1109.648438 742.683594 1108.851562 755.046875 C 1105.363281 748.941406 1104.898438 746.679688 1104.898438 739.234375 C 1103.59375 739.234375 1102.289062 739.234375 1100.945312 739.234375 C 1099.066406 731.929688 1099.066406 726.773438 1100.945312 719.46875 Z M 1100.945312 719.46875 "/>
<path style=" stroke:none;fill-rule:nonzero;fill:rgb(83.137256%,72.156864%,44.705883%);fill-opacity:1;" d="M 948.75 589.015625 C 949.402344 590.320312 950.054688 591.625 950.726562 592.96875 C 952.03125 592.96875 953.335938 592.96875 954.679688 592.96875 C 954.679688 594.273438 954.679688 595.578125 954.679688 596.921875 C 953.375 596.921875 952.070312 596.921875 950.726562 596.921875 C 950.523438 599.125 950.320312 601.324219 950.109375 603.59375 C 949.4375 607.140625 949.4375 607.140625 948.75 610.757812 C 946.792969 612.0625 944.835938 613.367188 942.820312 614.710938 C 943.90625 605.675781 945.621094 597.566406 948.75 589.015625 Z M 948.75 589.015625 "/>
<path style=" stroke:none;fill-rule:nonzero;fill:rgb(80.000001%,66.274512%,30.588236%);fill-opacity:1;" d="M 1019.90625 1235.351562 C 1020.558594 1235.351562 1021.210938 1235.351562 1021.882812 1235.351562 C 1021.65625 1238.8125 1021.402344 1242.269531 1021.140625 1245.726562 C 1021.003906 1247.65625 1020.867188 1249.582031 1020.726562 1251.566406 C 1019.9375 1256.890625 1018.652344 1260.394531 1015.953125 1265 C 1015.847656 1261.171875 1015.769531 1257.339844 1015.707031 1253.511719 C 1015.660156 1251.378906 1015.613281 1249.246094 1015.566406 1247.046875 C 1015.953125 1241.28125 1015.953125 1241.28125 1019.90625 1235.351562 Z M 1019.90625 1235.351562 "/>
<path style=" stroke:none;fill-rule:nonzero;fill:rgb(83.137256%,72.941178%,46.27451%);fill-opacity:1;" d="M 1332.203125 1019.90625 C 1331.550781 1021.210938 1330.898438 1022.515625 1330.226562 1023.859375 C 1327.347656 1024.019531 1324.460938 1024.132812 1321.578125 1024.230469 C 1319.972656 1024.296875 1318.367188 1024.367188 1316.714844 1024.4375 C 1315.304688 1024.246094 1313.890625 1024.054688 1312.4375 1023.859375 C 1311.132812 1021.902344 1309.828125 1019.945312 1308.484375 1017.929688 C 1317.203125 1015.023438 1323.691406 1017.070312 1332.203125 1019.90625 Z M 1332.203125 1019.90625 "/>
<path style=" stroke:none;fill-rule:nonzero;fill:rgb(85.490197%,74.901962%,47.450981%);fill-opacity:1;" d="M 1318.367188 875.617188 C 1321.828125 875.84375 1325.285156 876.097656 1328.742188 876.359375 C 1330.671875 876.496094 1332.597656 876.632812 1334.582031 876.773438 C 1339.90625 877.5625 1343.410156 878.847656 1348.015625 881.546875 C 1333.332031 884.089844 1333.332031 884.089844 1326.273438 881.546875 C 1326.273438 880.242188 1326.273438 878.9375 1326.273438 877.59375 C 1323.664062 876.941406 1321.054688 876.289062 1318.367188 875.617188 Z M 1318.367188 875.617188 "/>
<path style=" stroke:none;fill-rule:nonzero;fill:rgb(81.568629%,69.01961%,36.470589%);fill-opacity:1;" d="M 1124.664062 818.296875 C 1136.964844 825.277344 1136.964844 825.277344 1140.476562 830.15625 C 1139.859375 834.480469 1139.859375 834.480469 1138.5 838.0625 C 1131.113281 834.367188 1128.144531 825.527344 1124.664062 818.296875 Z M 1124.664062 818.296875 "/>
<path style=" stroke:none;fill-rule:nonzero;fill:rgb(80.784315%,67.450982%,33.333334%);fill-opacity:1;" d="M 670.054688 1012 C 679.1875 1013.957031 688.316406 1015.914062 697.726562 1017.929688 C 697.726562 1018.582031 697.726562 1019.234375 697.726562 1019.90625 C 694.554688 1019.960938 691.386719 1019.996094 688.214844 1020.03125 C 685.566406 1020.0625 685.566406 1020.0625 682.863281 1020.097656 C 677.960938 1019.90625 677.960938 1019.90625 672.03125 1017.929688 C 671.378906 1015.972656 670.726562 1014.015625 670.054688 1012 Z M 670.054688 1012 "/>
<path style=" stroke:none;fill-rule:nonzero;fill:rgb(80.392158%,67.058825%,32.156864%);fill-opacity:1;" d="M 1197.304688 976.050781 C 1199.25 976.105469 1201.195312 976.160156 1203.203125 976.214844 C 1204.679688 976.28125 1206.15625 976.351562 1207.679688 976.421875 C 1207.679688 977.074219 1207.679688 977.726562 1207.679688 978.398438 C 1197.351562 981.296875 1188.742188 982.796875 1178.03125 982.351562 C 1184.5 976.484375 1188.667969 975.742188 1197.304688 976.050781 Z M 1197.304688 976.050781 "/>
<path style=" stroke:none;fill-rule:nonzero;fill:rgb(85.09804%,74.117649%,45.490196%);fill-opacity:1;" d="M 719.46875 954.679688 C 738.066406 956.585938 738.066406 956.585938 747.140625 958.632812 C 747.140625 959.285156 747.140625 959.9375 747.140625 960.609375 C 738.609375 962.113281 731.832031 962.902344 723.421875 960.609375 C 723.421875 959.304688 723.421875 958 723.421875 956.65625 C 722.117188 956.003906 720.8125 955.351562 719.46875 954.679688 Z M 719.46875 954.679688 "/>
<path style=" stroke:none;fill-rule:nonzero;fill:rgb(85.09804%,74.901962%,48.235294%);fill-opacity:1;" d="M 980.375 772.835938 C 981.027344 772.835938 981.679688 772.835938 982.351562 772.835938 C 980.445312 793.703125 980.445312 793.703125 978.398438 802.484375 C 977.746094 802.484375 977.09375 802.484375 976.421875 802.484375 C 974.320312 790.574219 973.5625 783.054688 980.375 772.835938 Z M 980.375 772.835938 "/>
<path style=" stroke:none;fill-rule:nonzero;fill:rgb(84.313726%,73.333335%,45.09804%);fill-opacity:1;" d="M 905.265625 1104.898438 C 907.222656 1104.898438 909.179688 1104.898438 911.195312 1104.898438 C 912.851562 1114.101562 913.203125 1121.445312 911.195312 1130.59375 C 910.542969 1130.59375 909.890625 1130.59375 909.21875 1130.59375 C 907.914062 1122.113281 906.609375 1113.636719 905.265625 1104.898438 Z M 905.265625 1104.898438 "/>
<path style=" stroke:none;fill-rule:nonzero;fill:rgb(79.607844%,66.274512%,32.156864%);fill-opacity:1;" d="M 1253.140625 1033.742188 C 1249.632812 1038.183594 1248.035156 1039.574219 1242.308594 1040.25 C 1240.542969 1040.183594 1238.777344 1040.113281 1236.957031 1040.042969 C 1235.175781 1039.988281 1233.394531 1039.933594 1231.5625 1039.878906 C 1229.523438 1039.777344 1229.523438 1039.777344 1227.445312 1039.671875 C 1236.253906 1033.800781 1242.625 1033.503906 1253.140625 1033.742188 Z M 1253.140625 1033.742188 "/>
<path style=" stroke:none;fill-rule:nonzero;fill:rgb(79.607844%,66.274512%,31.764707%);fill-opacity:1;" d="M 694.144531 877.222656 C 695.925781 877.277344 697.707031 877.332031 699.539062 877.386719 C 701.578125 877.488281 701.578125 877.488281 703.65625 877.59375 C 697.40625 881.761719 694.75 882.214844 687.472656 882.78125 C 684.800781 883.003906 684.800781 883.003906 682.078125 883.230469 C 680.039062 883.375 680.039062 883.375 677.960938 883.523438 C 682.921875 877.242188 686.3125 876.917969 694.144531 877.222656 Z M 694.144531 877.222656 "/>
<path style=" stroke:none;fill-rule:nonzero;fill:rgb(84.705883%,73.725492%,45.882353%);fill-opacity:1;" d="M 919.101562 723.421875 C 919.753906 723.421875 920.40625 723.421875 921.078125 723.421875 C 923.496094 737.9375 923.496094 737.9375 921.449219 743.929688 C 919.101562 747.140625 919.101562 747.140625 915.148438 751.09375 C 917.054688 732.496094 917.054688 732.496094 919.101562 723.421875 Z M 919.101562 723.421875 "/>
<path style=" stroke:none;fill-rule:nonzero;fill:rgb(80.392158%,67.843139%,34.509805%);fill-opacity:1;" d="M 1203.726562 640.40625 C 1198.175781 646.265625 1193.480469 651.167969 1185.9375 654.242188 C 1186.554688 649.546875 1186.554688 649.546875 1187.914062 644.359375 C 1194.292969 640.105469 1196.382812 640.007812 1203.726562 640.40625 Z M 1203.726562 640.40625 "/>
<path style=" stroke:none;fill-rule:nonzero;fill:rgb(80.000001%,65.882355%,30.19608%);fill-opacity:1;" d="M 911.195312 1118.734375 C 914.535156 1125.417969 916.054688 1129.863281 917.371094 1137.015625 C 917.703125 1138.78125 918.035156 1140.542969 918.375 1142.359375 C 918.617188 1143.695312 918.855469 1145.03125 919.101562 1146.40625 C 917.796875 1146.40625 916.492188 1146.40625 915.148438 1146.40625 C 915.148438 1143.796875 915.148438 1141.1875 915.148438 1138.5 C 913.84375 1138.5 912.539062 1138.5 911.195312 1138.5 C 911.195312 1131.976562 911.195312 1125.453125 911.195312 1118.734375 Z M 911.195312 1118.734375 "/>
<path style=" stroke:none;fill-rule:nonzero;fill:rgb(80.784315%,67.058825%,32.941177%);fill-opacity:1;" d="M 697.726562 952.703125 C 700.894531 952.542969 704.066406 952.429688 707.238281 952.332031 C 709.886719 952.230469 709.886719 952.230469 712.589844 952.125 C 718.316406 952.800781 719.914062 954.191406 723.421875 958.632812 C 720.25 958.40625 717.078125 958.15625 713.910156 957.890625 C 712.144531 957.753906 710.378906 957.617188 708.558594 957.476562 C 703.65625 956.65625 703.65625 956.65625 697.726562 952.703125 Z M 697.726562 952.703125 "/>
<path style=" stroke:none;fill-rule:nonzero;fill:rgb(83.137256%,72.549021%,45.09804%);fill-opacity:1;" d="M 731.328125 942.820312 C 720.707031 944.734375 720.707031 944.734375 715.515625 944.796875 C 711.5625 941.957031 711.5625 941.957031 709.585938 938.867188 C 718.746094 935.921875 723.398438 937.53125 731.328125 942.820312 Z M 731.328125 942.820312 "/>
<path style=" stroke:none;fill-rule:nonzero;fill:rgb(80.392158%,67.843139%,35.686275%);fill-opacity:1;" d="M 1377.664062 899.335938 C 1383.828125 900.003906 1386.796875 900.5625 1391.253906 905.019531 C 1391.988281 906.40625 1392.71875 907.789062 1393.476562 909.21875 C 1392.824219 911.175781 1392.171875 913.132812 1391.5 915.148438 C 1389.1875 912.890625 1386.882812 910.625 1384.582031 908.355469 C 1383.296875 907.09375 1382.015625 905.832031 1380.691406 904.53125 C 1377.664062 901.3125 1377.664062 901.3125 1377.664062 899.335938 Z M 1377.664062 899.335938 "/>
<path style=" stroke:none;fill-rule:nonzero;fill:rgb(81.176472%,67.058825%,32.156864%);fill-opacity:1;" d="M 909.21875 891.429688 C 910.523438 892.082031 911.828125 892.734375 913.171875 893.40625 C 908.980469 898.019531 905.234375 901.144531 899.335938 903.289062 C 895.128906 902.394531 895.128906 902.394531 891.429688 901.3125 C 894.300781 899.605469 897.1875 897.921875 900.078125 896.246094 C 902.484375 894.835938 902.484375 894.835938 904.941406 893.398438 C 906.351562 892.75 907.765625 892.097656 909.21875 891.429688 Z M 909.21875 891.429688 "/>
<path style=" stroke:none;fill-rule:nonzero;fill:rgb(85.490197%,74.509805%,46.666667%);fill-opacity:1;" d="M 1039.671875 764.929688 C 1045.601562 768.882812 1045.601562 768.882812 1047.085938 775.429688 C 1047.515625 781.820312 1047.269531 786.480469 1045.601562 792.601562 C 1044.949219 792.601562 1044.296875 792.601562 1043.625 792.601562 C 1039.085938 774.003906 1039.085938 774.003906 1039.671875 764.929688 Z M 1039.671875 764.929688 "/>
<path style=" stroke:none;fill-rule:nonzero;fill:rgb(79.607844%,65.490198%,29.803923%);fill-opacity:1;" d="M 925.03125 707.609375 C 925.683594 707.609375 926.335938 707.609375 927.007812 707.609375 C 926.78125 710.742188 926.527344 713.871094 926.265625 717 C 926.058594 719.613281 926.058594 719.613281 925.851562 722.277344 C 925.035156 727.355469 923.625 730.851562 921.078125 735.28125 C 920.96875 732.152344 920.894531 729.023438 920.832031 725.890625 C 920.785156 724.148438 920.738281 722.40625 920.691406 720.613281 C 921.09375 715.292969 922.332031 712.15625 925.03125 707.609375 Z M 925.03125 707.609375 "/>
<path style=" stroke:none;fill-rule:nonzero;fill:rgb(80.000001%,65.490198%,29.803923%);fill-opacity:1;" d="M 992.234375 703.65625 C 992.886719 703.65625 993.539062 703.65625 994.210938 703.65625 C 994.210938 710.179688 994.210938 716.703125 994.210938 723.421875 C 992.90625 723.421875 991.601562 723.421875 990.257812 723.421875 C 989.605469 726.03125 988.953125 728.640625 988.28125 731.328125 C 988.5625 727.828125 988.851562 724.328125 989.144531 720.828125 C 989.304688 718.878906 989.46875 716.929688 989.632812 714.921875 C 990.257812 709.585938 990.257812 709.585938 992.234375 703.65625 Z M 992.234375 703.65625 "/>
<path style=" stroke:none;fill-rule:nonzero;fill:rgb(79.607844%,66.274512%,31.37255%);fill-opacity:1;" d="M 1002.117188 656.21875 C 1002.769531 656.21875 1003.421875 656.21875 1004.09375 656.21875 C 1004.09375 662.742188 1004.09375 669.265625 1004.09375 675.984375 C 1002.789062 675.984375 1001.484375 675.984375 1000.140625 675.984375 C 999.488281 677.941406 998.835938 679.898438 998.164062 681.914062 C 998.445312 678.742188 998.734375 675.570312 999.027344 672.402344 C 999.1875 670.636719 999.351562 668.871094 999.515625 667.050781 C 1000.140625 662.148438 1000.140625 662.148438 1002.117188 656.21875 Z M 1002.117188 656.21875 "/>
<path style=" stroke:none;fill-rule:nonzero;fill:rgb(83.529413%,72.941178%,45.882353%);fill-opacity:1;" d="M 1027.8125 1346.039062 C 1027.8125 1346.691406 1027.8125 1347.34375 1027.8125 1348.015625 C 1016.734375 1349.648438 1007.210938 1350.125 996.1875 1348.015625 C 996.1875 1347.363281 996.1875 1346.710938 996.1875 1346.039062 C 1007.058594 1343.464844 1016.882812 1344.636719 1027.8125 1346.039062 Z M 1027.8125 1346.039062 "/>
<path style=" stroke:none;fill-rule:nonzero;fill:rgb(79.215688%,65.490198%,29.411766%);fill-opacity:1;" d="M 1087.109375 1227.445312 C 1087.761719 1227.445312 1088.414062 1227.445312 1089.085938 1227.445312 C 1089.085938 1234.621094 1089.085938 1241.796875 1089.085938 1249.1875 C 1087.78125 1249.1875 1086.476562 1249.1875 1085.132812 1249.1875 C 1084.480469 1251.144531 1083.828125 1253.101562 1083.15625 1255.117188 C 1085.0625 1236.519531 1085.0625 1236.519531 1087.109375 1227.445312 Z M 1087.109375 1227.445312 "/>
<path style=" stroke:none;fill-rule:nonzero;fill:rgb(80.784315%,67.450982%,32.156864%);fill-opacity:1;" d="M 1071.296875 1039.671875 C 1071.949219 1040.976562 1072.601562 1042.28125 1073.273438 1043.625 C 1071.304688 1047.46875 1071.304688 1047.46875 1068.457031 1051.777344 C 1067.519531 1053.210938 1066.585938 1054.640625 1065.621094 1056.117188 C 1064.886719 1057.214844 1064.148438 1058.308594 1063.390625 1059.4375 C 1061.472656 1053.40625 1061.089844 1052.191406 1064.007812 1046.21875 C 1067.34375 1041.648438 1067.34375 1041.648438 1071.296875 1039.671875 Z M 1071.296875 1039.671875 "/>
<path style=" stroke:none;fill-rule:nonzero;fill:rgb(79.607844%,66.274512%,31.37255%);fill-opacity:1;" d="M 1225.46875 1039.671875 C 1219.25 1045.207031 1215.453125 1046.296875 1207.1875 1045.972656 C 1205.421875 1045.917969 1203.660156 1045.863281 1201.84375 1045.808594 C 1200.507812 1045.742188 1199.171875 1045.671875 1197.796875 1045.601562 C 1207.066406 1040.78125 1215.015625 1039.375 1225.46875 1039.671875 Z M 1225.46875 1039.671875 "/>
<path style=" stroke:none;fill-rule:nonzero;fill:rgb(79.215688%,65.882355%,30.980393%);fill-opacity:1;" d="M 1280.8125 1029.789062 C 1274.261719 1034.15625 1272.226562 1034.1875 1264.628906 1033.988281 C 1262.847656 1033.953125 1261.066406 1033.917969 1259.234375 1033.882812 C 1257.875 1033.835938 1256.515625 1033.789062 1255.117188 1033.742188 C 1263.433594 1028.199219 1271.210938 1026.464844 1280.8125 1029.789062 Z M 1280.8125 1029.789062 "/>
<path style=" stroke:none;fill-rule:nonzero;fill:rgb(80.392158%,66.666669%,32.941177%);fill-opacity:1;" d="M 1369.757812 1002.117188 C 1371.0625 1002.769531 1372.367188 1003.421875 1373.710938 1004.09375 C 1370.5 1008.046875 1370.5 1008.046875 1365.804688 1012 C 1359.382812 1012.492188 1359.382812 1012.492188 1353.945312 1012 C 1358.976562 1008.046875 1363.789062 1004.503906 1369.757812 1002.117188 Z M 1369.757812 1002.117188 "/>
<path style=" stroke:none;fill-rule:nonzero;fill:rgb(81.176472%,67.843139%,32.941177%);fill-opacity:1;" d="M 1283.160156 958.261719 C 1284.941406 958.316406 1286.722656 958.371094 1288.554688 958.425781 C 1290.59375 958.527344 1290.59375 958.527344 1292.671875 958.632812 C 1286.421875 962.800781 1283.765625 963.253906 1276.488281 963.820312 C 1273.816406 964.042969 1273.816406 964.042969 1271.09375 964.269531 C 1269.054688 964.414062 1269.054688 964.414062 1266.976562 964.5625 C 1271.9375 958.28125 1275.328125 957.957031 1283.160156 958.261719 Z M 1283.160156 958.261719 "/>
<path style=" stroke:none;fill-rule:nonzero;fill:rgb(81.568629%,68.627453%,34.509805%);fill-opacity:1;" d="M 1142.453125 836.085938 C 1148.625 837.046875 1154.304688 838.058594 1160.242188 840.039062 C 1160.242188 841.34375 1160.242188 842.648438 1160.242188 843.992188 C 1161.546875 844.644531 1162.851562 845.296875 1164.195312 845.96875 C 1155.554688 844.964844 1149.589844 843.097656 1142.453125 838.0625 C 1142.453125 837.410156 1142.453125 836.757812 1142.453125 836.085938 Z M 1142.453125 836.085938 "/>
<path style=" stroke:none;fill-rule:nonzero;fill:rgb(85.490197%,74.901962%,49.019608%);fill-opacity:1;" d="M 905.265625 788.648438 C 905.917969 788.648438 906.570312 788.648438 907.242188 788.648438 C 907.203125 790.851562 907.160156 793.050781 907.117188 795.320312 C 906.722656 802.152344 906.722656 802.152344 909.21875 806.4375 C 908.566406 807.742188 907.914062 809.046875 907.242188 810.390625 C 904.632812 811.042969 902.023438 811.695312 899.335938 812.367188 C 901.292969 804.539062 903.25 796.710938 905.265625 788.648438 Z M 905.265625 788.648438 "/>
<path style=" stroke:none;fill-rule:nonzero;fill:rgb(80.784315%,68.235296%,34.901962%);fill-opacity:1;" d="M 1195.820312 679.9375 C 1203.34375 681.265625 1210.351562 683.351562 1217.5625 685.867188 C 1217.5625 686.519531 1217.5625 687.171875 1217.5625 687.84375 C 1202.761719 688.570312 1202.761719 688.570312 1197.796875 685.003906 C 1195.820312 681.914062 1195.820312 681.914062 1195.820312 679.9375 Z M 1195.820312 679.9375 "/>
<path style=" stroke:none;fill-rule:nonzero;fill:rgb(80.000001%,65.882355%,30.19608%);fill-opacity:1;" d="M 1002.117188 1239.304688 C 1006.28125 1242.679688 1007.925781 1244.289062 1008.625 1249.703125 C 1008.558594 1251.285156 1008.488281 1252.871094 1008.417969 1254.5 C 1008.363281 1256.097656 1008.308594 1257.695312 1008.253906 1259.339844 C 1008.1875 1260.554688 1008.117188 1261.769531 1008.046875 1263.023438 C 1004.046875 1257.023438 1003.457031 1254.734375 1002.859375 1247.828125 C 1002.710938 1246.230469 1002.5625 1244.632812 1002.410156 1242.988281 C 1002.3125 1241.773438 1002.21875 1240.558594 1002.117188 1239.304688 Z M 1002.117188 1239.304688 "/>
<path style=" stroke:none;fill-rule:nonzero;fill:rgb(80.784315%,67.058825%,32.549021%);fill-opacity:1;" d="M 952.703125 1045.601562 C 958.632812 1047.578125 958.632812 1047.578125 961.96875 1052.023438 C 964.691406 1057.730469 965.097656 1061.121094 964.5625 1067.34375 C 952.703125 1052.097656 952.703125 1052.097656 952.703125 1045.601562 Z M 952.703125 1045.601562 "/>
<path style=" stroke:none;fill-rule:nonzero;fill:rgb(79.607844%,65.490198%,30.19608%);fill-opacity:1;" d="M 747.140625 934.914062 C 745.183594 935.566406 743.226562 936.21875 741.210938 936.890625 C 741.210938 938.195312 741.210938 939.5 741.210938 940.84375 C 734.6875 940.84375 728.164062 940.84375 721.445312 940.84375 C 730.769531 936.179688 736.789062 934.625 747.140625 934.914062 Z M 747.140625 934.914062 "/>
<path style=" stroke:none;fill-rule:nonzero;fill:rgb(80.784315%,67.843139%,34.117648%);fill-opacity:1;" d="M 1251.164062 697.726562 C 1259.070312 701.679688 1259.070312 701.679688 1261.664062 705.386719 C 1263.023438 709.585938 1263.023438 709.585938 1261.046875 717.492188 C 1257.785156 710.96875 1254.523438 704.445312 1251.164062 697.726562 Z M 1251.164062 697.726562 "/>
<path style=" stroke:none;fill-rule:nonzero;fill:rgb(83.529413%,72.941178%,44.313726%);fill-opacity:1;" d="M 1255.117188 616.6875 C 1256.421875 618.644531 1257.726562 620.601562 1259.070312 622.617188 C 1256.460938 625.878906 1253.851562 629.140625 1251.164062 632.5 C 1249.207031 631.847656 1247.25 631.195312 1245.234375 630.523438 C 1246.539062 629.871094 1247.84375 629.21875 1249.1875 628.546875 C 1247.882812 627.242188 1246.578125 625.9375 1245.234375 624.59375 C 1246.5 624.023438 1247.761719 623.453125 1249.0625 622.863281 C 1253.441406 620.980469 1253.441406 620.980469 1255.117188 616.6875 Z M 1255.117188 616.6875 "/>
<path style=" stroke:none;fill-rule:nonzero;fill:rgb(79.607844%,65.882355%,31.37255%);fill-opacity:1;" d="M 768.882812 1338.132812 C 766.78125 1341.097656 766.78125 1341.097656 762.953125 1344.0625 C 755.664062 1344.433594 755.664062 1344.433594 749.117188 1344.0625 C 754.484375 1338.695312 761.613281 1334.496094 768.882812 1338.132812 Z M 768.882812 1338.132812 "/>
<path style=" stroke:none;fill-rule:nonzero;fill:rgb(81.568629%,69.01961%,36.078432%);fill-opacity:1;" d="M 1132.570312 994.210938 C 1130.613281 995.1875 1130.613281 995.1875 1128.617188 996.1875 C 1127.964844 998.144531 1127.3125 1000.101562 1126.640625 1002.117188 C 1123.378906 1002.117188 1120.117188 1002.117188 1116.757812 1002.117188 C 1117.410156 1000.160156 1118.0625 998.203125 1118.734375 996.1875 C 1123.601562 993.753906 1127.191406 994.070312 1132.570312 994.210938 Z M 1132.570312 994.210938 "/>
<path style=" stroke:none;fill-rule:nonzero;fill:rgb(86.274511%,77.254903%,52.549022%);fill-opacity:1;" d="M 986.304688 745.164062 C 986.957031 745.164062 987.609375 745.164062 988.28125 745.164062 C 986.375 763.761719 986.375 763.761719 984.328125 772.835938 C 981.441406 767.601562 980.375 765.136719 980.375 759 C 981.679688 759 982.984375 759 984.328125 759 C 984.980469 754.433594 985.632812 749.867188 986.304688 745.164062 Z M 986.304688 745.164062 "/>
<path style=" stroke:none;fill-rule:nonzero;fill:rgb(84.705883%,73.725492%,45.490196%);fill-opacity:1;" d="M 1265 737.257812 C 1266.304688 738.5625 1267.609375 739.867188 1268.953125 741.210938 C 1270.257812 740.558594 1271.5625 739.90625 1272.90625 739.234375 C 1273.277344 743.804688 1273.277344 743.804688 1272.90625 749.117188 C 1270.949219 751.074219 1268.992188 753.03125 1266.976562 755.046875 C 1266.324219 749.175781 1265.671875 743.304688 1265 737.257812 Z M 1265 737.257812 "/>
<path style=" stroke:none;fill-rule:nonzero;fill:rgb(76.862746%,62.7451%,25.882354%);fill-opacity:1;" d="M 940.84375 630.523438 C 941.496094 630.523438 942.148438 630.523438 942.820312 630.523438 C 945.722656 641.34375 943.691406 646.570312 938.867188 656.21875 C 938.214844 656.21875 937.5625 656.21875 936.890625 656.21875 C 937.171875 653.417969 937.460938 650.617188 937.753906 647.820312 C 937.914062 646.257812 938.078125 644.699219 938.242188 643.09375 C 938.820312 638.777344 939.699219 634.71875 940.84375 630.523438 Z M 940.84375 630.523438 "/>
<path style=" stroke:none;fill-rule:nonzero;fill:rgb(81.176472%,68.235296%,34.901962%);fill-opacity:1;" d="M 1320.34375 942.820312 C 1320.996094 944.125 1321.648438 945.429688 1322.320312 946.773438 C 1316.449219 946.773438 1310.578125 946.773438 1304.53125 946.773438 C 1303.878906 945.46875 1303.226562 944.164062 1302.554688 942.820312 C 1308.71875 939.738281 1313.761719 941.503906 1320.34375 942.820312 Z M 1320.34375 942.820312 "/>
<path style=" stroke:none;fill-rule:nonzero;fill:rgb(83.137256%,72.549021%,44.705883%);fill-opacity:1;" d="M 913.171875 885.5 C 914.476562 886.152344 915.78125 886.804688 917.125 887.476562 C 917.125 889.433594 917.125 891.390625 917.125 893.40625 C 914.515625 893.40625 911.90625 893.40625 909.21875 893.40625 C 906.566406 893.996094 903.925781 894.636719 901.3125 895.382812 C 905.132812 891.382812 908.492188 888.621094 913.171875 885.5 Z M 913.171875 885.5 "/>
<path style=" stroke:none;fill-rule:nonzero;fill:rgb(81.176472%,67.450982%,32.941177%);fill-opacity:1;" d="M 656.21875 887.476562 C 658.828125 888.128906 661.4375 888.78125 664.125 889.453125 C 659.558594 892.714844 654.992188 895.976562 650.289062 899.335938 C 648.984375 898.683594 647.679688 898.03125 646.335938 897.359375 C 650.78125 892.292969 650.78125 892.292969 656.21875 887.476562 Z M 656.21875 887.476562 "/>
<path style=" stroke:none;fill-rule:nonzero;fill:rgb(83.92157%,72.941178%,45.490196%);fill-opacity:1;" d="M 816.320312 1181.984375 C 821.261719 1186.28125 823.113281 1189.359375 824.226562 1195.820312 C 819.335938 1193.863281 819.335938 1193.863281 814.34375 1191.867188 C 814.996094 1188.605469 815.648438 1185.34375 816.320312 1181.984375 Z M 816.320312 1181.984375 "/>
<path style=" stroke:none;fill-rule:nonzero;fill:rgb(85.09804%,74.509805%,48.235294%);fill-opacity:1;" d="M 622.617188 968.515625 C 623.921875 971.125 625.226562 973.734375 626.570312 976.421875 C 627.875 976.421875 629.179688 976.421875 630.523438 976.421875 C 631.175781 980.335938 631.828125 984.25 632.5 988.28125 C 627.875 984.078125 624.976562 980.253906 622.617188 974.445312 C 622.617188 972.488281 622.617188 970.53125 622.617188 968.515625 Z M 622.617188 968.515625 "/>
<path style=" stroke:none;fill-rule:nonzero;fill:rgb(79.607844%,66.274512%,32.549021%);fill-opacity:1;" d="M 966.539062 567.273438 C 966.539062 573.203125 966.539062 573.203125 961.597656 578.515625 C 959.96875 580.023438 958.335938 581.53125 956.65625 583.085938 C 957.347656 576.679688 957.765625 573.964844 962.710938 569.621094 C 963.972656 568.847656 965.238281 568.070312 966.539062 567.273438 Z M 966.539062 567.273438 "/>
<path style=" stroke:none;fill-rule:nonzero;fill:rgb(81.176472%,69.01961%,36.862746%);fill-opacity:1;" d="M 950.726562 1302.554688 C 955.8125 1305.097656 956.675781 1307.167969 958.632812 1312.4375 C 957.890625 1316.882812 957.890625 1316.882812 956.65625 1320.34375 C 952.121094 1313.542969 950.726562 1311.007812 950.726562 1302.554688 Z M 950.726562 1302.554688 "/>
<path style=" stroke:none;fill-rule:nonzero;fill:rgb(80.784315%,68.627453%,36.862746%);fill-opacity:1;" d="M 628.546875 1272.90625 C 632.390625 1278.671875 633.394531 1282.046875 634.476562 1288.71875 C 632.519531 1288.066406 630.5625 1287.414062 628.546875 1286.742188 C 627.792969 1282.804688 627.136719 1278.851562 626.570312 1274.882812 C 627.222656 1274.230469 627.875 1273.578125 628.546875 1272.90625 Z M 628.546875 1272.90625 "/>
<path style=" stroke:none;fill-rule:nonzero;fill:rgb(81.176472%,67.450982%,32.941177%);fill-opacity:1;" d="M 697.726562 1207.679688 C 699.03125 1207.679688 700.335938 1207.679688 701.679688 1207.679688 C 699.125 1213.378906 696.421875 1217.308594 691.796875 1221.515625 C 691.144531 1220.210938 690.492188 1218.90625 689.820312 1217.5625 C 692.351562 1214.1875 694.996094 1210.894531 697.726562 1207.679688 Z M 697.726562 1207.679688 "/>
<path style=" stroke:none;fill-rule:nonzero;fill:rgb(86.274511%,76.078433%,52.156866%);fill-opacity:1;" d="M 1270.929688 960.609375 C 1268.972656 961.585938 1268.972656 961.585938 1266.976562 962.585938 C 1267.628906 964.542969 1268.28125 966.5 1268.953125 968.515625 C 1263.097656 967.304688 1260.292969 966.039062 1255.117188 962.585938 C 1260.90625 960.65625 1264.914062 960.445312 1270.929688 960.609375 Z M 1270.929688 960.609375 "/>
<path style=" stroke:none;fill-rule:nonzero;fill:rgb(78.431374%,68.235296%,41.960785%);fill-opacity:1;" d="M 675.984375 1340.109375 C 677.941406 1340.109375 679.898438 1340.109375 681.914062 1340.109375 C 681.261719 1341.414062 680.609375 1342.71875 679.9375 1344.0625 C 677.980469 1343.410156 676.023438 1342.757812 674.007812 1342.085938 C 674.660156 1341.433594 675.3125 1340.78125 675.984375 1340.109375 Z M 675.984375 1340.109375 "/>
<path style=" stroke:none;fill-rule:nonzero;fill:rgb(81.960785%,70.588237%,43.529412%);fill-opacity:1;" d="M 1239.304688 1041.648438 C 1242.566406 1041.648438 1245.828125 1041.648438 1249.1875 1041.648438 C 1249.1875 1042.300781 1249.1875 1042.953125 1249.1875 1043.625 C 1245.925781 1043.625 1242.664062 1043.625 1239.304688 1043.625 C 1239.304688 1042.972656 1239.304688 1042.320312 1239.304688 1041.648438 Z M 1239.304688 1041.648438 "/>
<path style=" stroke:none;fill-rule:nonzero;fill:rgb(83.137256%,72.549021%,42.745098%);fill-opacity:1;" d="M 745.164062 1209.65625 C 745.816406 1210.960938 746.46875 1212.265625 747.140625 1213.609375 C 745.835938 1212.957031 744.53125 1212.304688 743.1875 1211.632812 C 743.839844 1210.980469 744.492188 1210.328125 745.164062 1209.65625 Z M 745.164062 1209.65625 "/>
<path style=" stroke:none;fill-rule:nonzero;fill:rgb(81.960785%,71.372551%,42.745098%);fill-opacity:1;" d="M 780.742188 853.875 C 786.671875 855.851562 786.671875 855.851562 786.671875 855.851562 Z M 780.742188 853.875 "/>
<path style=" stroke:none;fill-rule:nonzero;fill:rgb(78.431374%,68.235296%,41.960785%);fill-opacity:1;" d="M 666.101562 1334.179688 C 670.054688 1336.15625 670.054688 1336.15625 670.054688 1336.15625 Z M 666.101562 1334.179688 "/>
<path style=" stroke:none;fill-rule:nonzero;fill:rgb(78.431374%,69.411767%,42.352942%);fill-opacity:1;" d="M 650.289062 1322.320312 C 654.242188 1324.296875 654.242188 1324.296875 654.242188 1324.296875 Z M 650.289062 1322.320312 "/>
<path style=" stroke:none;fill-rule:nonzero;fill:rgb(82.745099%,70.588237%,41.568628%);fill-opacity:1;" d="M 843.992188 1055.484375 C 847.945312 1057.460938 847.945312 1057.460938 847.945312 1057.460938 Z M 843.992188 1055.484375 "/>
<path style=" stroke:none;fill-rule:nonzero;fill:rgb(82.352942%,71.372551%,43.137255%);fill-opacity:1;" d="M 1193.84375 1051.53125 C 1197.796875 1053.507812 1197.796875 1053.507812 1197.796875 1053.507812 Z M 1193.84375 1051.53125 "/>
<path style=" stroke:none;fill-rule:nonzero;fill:rgb(81.568629%,70.980394%,43.137255%);fill-opacity:1;" d="M 1314.414062 1025.835938 C 1318.367188 1027.8125 1318.367188 1027.8125 1318.367188 1027.8125 Z M 1314.414062 1025.835938 "/>
<path style=" stroke:none;fill-rule:nonzero;fill:rgb(84.705883%,72.941178%,43.529412%);fill-opacity:1;" d="M 755.046875 952.703125 C 759 954.679688 759 954.679688 759 954.679688 Z M 755.046875 952.703125 "/>
<path style=" stroke:none;fill-rule:nonzero;fill:rgb(85.490197%,72.941178%,45.09804%);fill-opacity:1;" d="M 717.492188 946.773438 C 721.445312 948.75 721.445312 948.75 721.445312 948.75 Z M 717.492188 946.773438 "/>
<path style=" stroke:none;fill-rule:nonzero;fill:rgb(85.09804%,73.333335%,43.529412%);fill-opacity:1;" d="M 1286.742188 944.796875 C 1290.695312 946.773438 1290.695312 946.773438 1290.695312 946.773438 Z M 1286.742188 944.796875 "/>
<path style=" stroke:none;fill-rule:nonzero;fill:rgb(83.529413%,71.372551%,41.960785%);fill-opacity:1;" d="M 731.328125 942.820312 C 735.28125 944.796875 735.28125 944.796875 735.28125 944.796875 Z M 731.328125 942.820312 "/>
<path style=" stroke:none;fill-rule:nonzero;fill:rgb(84.313726%,73.333335%,44.705883%);fill-opacity:1;" d="M 1266.976562 940.84375 C 1270.929688 942.820312 1270.929688 942.820312 1270.929688 942.820312 Z M 1266.976562 940.84375 "/>
<path style=" stroke:none;fill-rule:nonzero;fill:rgb(83.92157%,72.941178%,43.921569%);fill-opacity:1;" d="M 1209.65625 928.984375 C 1213.609375 930.960938 1213.609375 930.960938 1213.609375 930.960938 Z M 1209.65625 928.984375 "/>
<path style=" stroke:none;fill-rule:nonzero;fill:rgb(81.960785%,70.980394%,42.745098%);fill-opacity:1;" d="M 853.875 838.0625 C 857.828125 840.039062 857.828125 840.039062 857.828125 840.039062 Z M 853.875 838.0625 "/>
<path style=" stroke:none;fill-rule:nonzero;fill:rgb(80.784315%,70.980394%,43.137255%);fill-opacity:1;" d="M 1340.109375 620.640625 C 1344.0625 622.617188 1344.0625 622.617188 1344.0625 622.617188 Z M 1340.109375 620.640625 "/>
</g>
</svg>
